<?xml version="1.0" encoding="utf-8"?>
<!-- Generator: Adobe Illustrator 16.0.0, SVG Export Plug-In . SVG Version: 6.00 Build 0)  -->
<!DOCTYPE svg PUBLIC "-//W3C//DTD SVG 1.1//EN" "http://www.w3.org/Graphics/SVG/1.1/DTD/svg11.dtd">
<svg version="1.1" id="Layer_1" xmlns="http://www.w3.org/2000/svg" xmlns:xlink="http://www.w3.org/1999/xlink" x="0px" y="0px"
	 width="400px" height="400px" viewBox="0 0 400 400" enable-background="new 0 0 400 400" xml:space="preserve">
<g>
	<path fill="#FFFFFF" d="M316.999,43.91h-87.144V8.847c0-4.886-3.961-8.847-8.848-8.847h-42.014c-4.886,0-8.847,3.961-8.847,8.847
		V43.91H83.002c-20.959,0-38.01,17.051-38.01,38.009V199.91c0,20.959,17.051,38.009,38.01,38.009h87.144v153.232
		c0,4.887,3.961,8.848,8.848,8.848h42.014c4.886,0,8.848-3.961,8.848-8.848V237.92h87.144c20.959,0,38.01-17.051,38.01-38.008
		V81.919C355.008,60.961,337.957,43.91,316.999,43.91z M337.313,199.912c0,11.202-9.112,20.315-20.315,20.315H83.002
		c-11.202,0-20.316-9.113-20.316-20.315V81.919c0-11.202,9.113-20.314,20.316-20.314h233.997c11.202,0,20.316,9.112,20.316,20.314
		v117.993H337.313z M187.84,17.694h24.32V43.91h-24.32V17.694z M212.16,382.306h-24.32V237.92h24.32V382.306z"/>
	<path fill="#FFFFFF" d="M85.328,71.071c-1.656-1.643-3.931-2.591-6.256-2.591s-4.613,0.948-6.256,2.591s-2.591,3.931-2.591,6.256
		s0.948,4.601,2.591,6.256c1.643,1.643,3.931,2.591,6.256,2.591s4.601-0.948,6.256-2.591c1.643-1.656,2.591-3.931,2.591-6.256
		S86.971,72.714,85.328,71.071z"/>
	<path fill="#FFFFFF" d="M320.929,68.48c-2.325,0-4.601,0.948-6.256,2.591c-1.644,1.643-2.592,3.931-2.592,6.256
		s0.948,4.613,2.592,6.256c1.655,1.643,3.931,2.591,6.256,2.591s4.613-0.948,6.256-2.591c1.656-1.656,2.592-3.931,2.592-6.256
		s-0.936-4.613-2.592-6.256C325.542,69.428,323.254,68.48,320.929,68.48L320.929,68.48z"/>
	<path fill="#FFFFFF" d="M112.74,121.236h16.159c4.886,0,8.847-3.961,8.847-8.847s-3.961-8.847-8.847-8.847H112.74
		c-13.789,0-25.006,11.217-25.006,25.006s11.217,25.006,25.006,25.006c4.032,0,7.312,3.28,7.312,7.312
		c0,4.032-3.28,7.312-7.312,7.312H96.581c-4.886,0-8.847,3.961-8.847,8.847s3.961,8.847,8.847,8.847h16.159
		c13.789,0,25.006-11.217,25.006-25.006c0-13.789-11.217-25.006-25.006-25.006c-4.032,0-7.312-3.28-7.312-7.312
		S108.708,121.236,112.74,121.236L112.74,121.236z"/>
	<path fill="#FFFFFF" d="M172.854,103.542h-3.882c-12.718,0-23.066,10.347-23.066,23.066v36.2c0,12.718,10.348,23.066,23.066,23.066
		h3.882c12.718,0,23.066-10.348,23.066-23.066v-36.2C195.92,113.889,185.573,103.542,172.854,103.542z M178.226,162.806
		c0,2.961-2.409,5.372-5.371,5.372h-3.882c-2.961,0-5.371-2.409-5.371-5.372v-36.2c0-2.961,2.409-5.372,5.371-5.372h3.882
		c2.961,0,5.371,2.409,5.371,5.372V162.806z"/>
	<path fill="#FFFFFF" d="M281.945,103.542h-10.843c-4.886,0-8.847,3.961-8.847,8.847v64.636c0,4.886,3.961,8.847,8.847,8.847h10.843
		c16.721,0,30.322-13.602,30.322-30.322v-21.687C312.268,117.145,298.666,103.542,281.945,103.542z M294.572,155.55
		c0,6.963-5.664,12.627-12.627,12.627h-1.996v-46.942h1.996c6.963,0,12.627,5.665,12.627,12.627V155.55z"/>
	<path fill="#FFFFFF" d="M245.246,168.178h-17.58c-3.248,0-5.892-2.643-5.892-5.892v-49.897c0-4.886-3.962-8.847-8.847-8.847
		c-4.887,0-8.848,3.961-8.848,8.847v49.897c0,13.005,10.581,23.586,23.586,23.586h17.58c4.886,0,8.848-3.961,8.848-8.847
		S250.132,168.178,245.246,168.178z"/>
</g>
</svg>
