<?xml version="1.0"?>
<svg xmlns="http://www.w3.org/2000/svg" xmlns:xlink="http://www.w3.org/1999/xlink" version="1.1" id="Capa_1" x="0px" y="0px" viewBox="0 0 512 512" style="enable-background:new 0 0 512 512;" xml:space="preserve" width="512px" height="512px" class=""><g><polygon style="fill:#FFA300" points="152,16 184,16 216,16 248,16 280,16 312,16 344,16 376,16 408,16 440,16 472,16 472,48   88,48 88,16 120,16 " data-original="#FFD2A6" class="active-path" data-old_color="#FFAA00"/><g>
	<polygon style="fill:#6ADBD2" points="128,234.48 104,248 104,216 232,144 360,216 360,248 336,234.48 232,176  " data-original="#B3D7F2" class="" data-old_color="#69DAD1"/>
	<rect x="208" y="280" style="fill:#6ADBD2" width="48" height="80" data-original="#B3D7F2" class="" data-old_color="#69DAD1"/>
</g><polygon style="fill:#226C65" points="336,234.48 336,360 256,360 256,280 208,280 208,360 128,360 128,234.48 232,176 " data-original="#87BCF4" class="" data-old_color="#226D66"/><rect x="368" y="464" style="fill:#EC87C0;" width="32" height="32" data-original="#EC87C0" class=""/><rect x="336" y="464" style="fill:#CCD1D9;" width="32" height="32" data-original="#CCD1D9" class=""/><polygon style="fill:#EFFF00" points="336,464 336,496 96,496 64,480 96,464 " data-original="#FFCE54" class="" data-old_color="#E8FF00"/><path style="fill:#226C65" d="M56,16v64H40C22.32,80,8,65.68,8,48s14.32-32,32-32H56z" data-original="#4A89DC" class="" data-old_color="#4A89DC"/><path style="fill:#226C65" d="M504,112v352c0,17.68-14.32,32-32,32h-16v-64V144h16C489.68,144,504,129.68,504,112z" data-original="#87BCF4" class="" data-old_color="#226D66"/><path style="fill:#39B1A7" d="M56,80h416c17.68,0,32,14.32,32,32s-14.32,32-32,32h-16v288H40c-17.68,0-32-14.32-32-32V48  c0,17.68,14.32,32,32,32H56z M128,360h80h48h80V234.48L360,248v-32l-128-72l-128,72v32l24-13.52V360z" data-original="#5D9CEC" class="" data-old_color="#39b1a7"/><path d="M40,88C17.944,88,0,70.056,0,48S17.944,8,40,8c4.424,0,8,3.584,8,8s-3.576,8-8,8c-13.232,0-24,10.768-24,24s10.768,24,24,24  c4.424,0,8,3.584,8,8S44.424,88,40,88z" data-original="#000000" class="" style="fill:#282828" data-old_color="#000000"/><path d="M472,504c-4.424,0-8-3.576-8-8s3.576-8,8-8c13.232,0,24-10.768,24-24c0-4.424,3.576-8,8-8s8,3.576,8,8  C512,486.056,494.056,504,472,504z" data-original="#000000" class="" style="fill:#282828" data-old_color="#000000"/><path d="M472,152c-4.424,0-8-3.584-8-8s3.576-8,8-8c13.232,0,24-10.768,24-24s-10.768-24-24-24c-4.424,0-8-3.584-8-8s3.576-8,8-8  c22.056,0,40,17.944,40,40S494.056,152,472,152z" data-original="#000000" class="" style="fill:#282828" data-old_color="#000000"/><path d="M8,408.032c-4.424,0-8-3.576-8-8V48c0-4.416,3.576-8,8-8s8,3.584,8,8v352.032C16,404.456,12.424,408.032,8,408.032z" data-original="#000000" class="" style="fill:#282828" data-old_color="#000000"/><path d="M456,440H40c-4.424,0-8-3.576-8-8s3.576-8,8-8h416c4.424,0,8,3.576,8,8S460.424,440,456,440z" data-original="#000000" class="" style="fill:#282828" data-old_color="#000000"/><path d="M472,88H40c-4.424,0-8-3.584-8-8s3.576-8,8-8h432c4.424,0,8,3.584,8,8S476.424,88,472,88z" data-original="#000000" class="" style="fill:#282828" data-old_color="#000000"/><path d="M504,472c-4.424,0-8-3.576-8-8V112c0-4.416,3.576-8,8-8s8,3.584,8,8v352C512,468.424,508.424,472,504,472z" data-original="#000000" class="" style="fill:#282828" data-old_color="#000000"/><path d="M456,504c-4.424,0-8-3.576-8-8V144c0-4.416,3.576-8,8-8s8,3.584,8,8v352C464,500.424,460.424,504,456,504z" data-original="#000000" class="" style="fill:#282828" data-old_color="#000000"/><path d="M56,88c-4.424,0-8-3.584-8-8V16c0-4.416,3.576-8,8-8s8,3.584,8,8v64C64,84.416,60.424,88,56,88z" data-original="#000000" class="" style="fill:#282828" data-old_color="#000000"/><path d="M40,440.032c-22.056,0-40-17.944-40-40c0-4.424,3.576-8,8-8s8,3.576,8,8c0,13.232,10.768,24,24,24c4.424,0,8,3.576,8,8  S44.424,440.032,40,440.032z" data-original="#000000" class="" style="fill:#282828" data-old_color="#000000"/><path d="M472,152h-16c-4.424,0-8-3.584-8-8s3.576-8,8-8h16c4.424,0,8,3.584,8,8S476.424,152,472,152z" data-original="#000000" class="" style="fill:#282828" data-old_color="#000000"/><path d="M472,504h-16c-4.424,0-8-3.576-8-8s3.576-8,8-8h16c4.424,0,8,3.576,8,8S476.424,504,472,504z" data-original="#000000" class="" style="fill:#282828" data-old_color="#000000"/><path d="M56,24H40c-4.424,0-8-3.584-8-8s3.576-8,8-8h16c4.424,0,8,3.584,8,8S60.424,24,56,24z" data-original="#000000" class="" style="fill:#282828" data-old_color="#000000"/><path d="M400,472H96c-4.424,0-8-3.576-8-8s3.576-8,8-8h304c4.424,0,8,3.576,8,8S404.424,472,400,472z" data-original="#000000" class="" style="fill:#282828" data-old_color="#000000"/><path d="M400,504c-4.424,0-8-3.576-8-8v-32c0-4.424,3.576-8,8-8s8,3.576,8,8v32C408,500.424,404.424,504,400,504z" data-original="#000000" class="" style="fill:#282828" data-old_color="#000000"/><path d="M400,504H96c-4.424,0-8-3.576-8-8s3.576-8,8-8h304c4.424,0,8,3.576,8,8S404.424,504,400,504z" data-original="#000000" class="" style="fill:#282828" data-old_color="#000000"/><path d="M95.992,504c-1.2,0-2.424-0.272-3.568-0.84l-32-16c-3.952-1.976-5.552-6.784-3.576-10.736s6.784-5.536,10.736-3.576l32,16  c3.952,1.976,5.552,6.784,3.576,10.736C101.752,502.384,98.928,504,95.992,504z" data-original="#000000" class="" style="fill:#282828" data-old_color="#000000"/><path d="M64.008,488c-2.936,0-5.76-1.616-7.168-4.424c-1.976-3.952-0.376-8.76,3.576-10.736l32-16  c3.952-1.96,8.76-0.376,10.736,3.576s0.376,8.76-3.576,10.736l-32,16C66.432,487.728,65.208,488,64.008,488z" data-original="#000000" class="" style="fill:#282828" data-old_color="#000000"/><path d="M368,504c-4.424,0-8-3.576-8-8v-32c0-4.424,3.576-8,8-8s8,3.576,8,8v32C376,500.424,372.424,504,368,504z" data-original="#000000" class="" style="fill:#282828" data-old_color="#000000"/><path d="M336,504c-4.424,0-8-3.576-8-8v-32c0-4.424,3.576-8,8-8s8,3.576,8,8v32C344,500.424,340.424,504,336,504z" data-original="#000000" class="" style="fill:#282828" data-old_color="#000000"/><path d="M472,56H88c-4.424,0-8-3.584-8-8V16c0-4.416,3.576-8,8-8h384c4.424,0,8,3.584,8,8v32C480,52.416,476.424,56,472,56z M96,40  h368V24H96V40z" data-original="#000000" class="" style="fill:#282828" data-old_color="#000000"/><path d="M120,32c-4.424,0-8-3.584-8-8v-8c0-4.416,3.576-8,8-8s8,3.584,8,8v8C128,28.416,124.424,32,120,32z" data-original="#000000" class="" style="fill:#282828" data-old_color="#000000"/><path d="M152,32c-4.424,0-8-3.584-8-8v-8c0-4.416,3.576-8,8-8s8,3.584,8,8v8C160,28.416,156.424,32,152,32z" data-original="#000000" class="" style="fill:#282828" data-old_color="#000000"/><path d="M184,32c-4.424,0-8-3.584-8-8v-8c0-4.416,3.576-8,8-8s8,3.584,8,8v8C192,28.416,188.424,32,184,32z" data-original="#000000" class="" style="fill:#282828" data-old_color="#000000"/><path d="M216,32c-4.424,0-8-3.584-8-8v-8c0-4.416,3.576-8,8-8s8,3.584,8,8v8C224,28.416,220.424,32,216,32z" data-original="#000000" class="" style="fill:#282828" data-old_color="#000000"/><path d="M248,32c-4.424,0-8-3.584-8-8v-8c0-4.416,3.576-8,8-8s8,3.584,8,8v8C256,28.416,252.424,32,248,32z" data-original="#000000" class="" style="fill:#282828" data-old_color="#000000"/><path d="M280,32c-4.424,0-8-3.584-8-8v-8c0-4.416,3.576-8,8-8s8,3.584,8,8v8C288,28.416,284.424,32,280,32z" data-original="#000000" class="" style="fill:#282828" data-old_color="#000000"/><path d="M312,32c-4.424,0-8-3.584-8-8v-8c0-4.416,3.576-8,8-8s8,3.584,8,8v8C320,28.416,316.424,32,312,32z" data-original="#000000" class="" style="fill:#282828" data-old_color="#000000"/><path d="M344,32c-4.424,0-8-3.584-8-8v-8c0-4.416,3.576-8,8-8s8,3.584,8,8v8C352,28.416,348.424,32,344,32z" data-original="#000000" class="" style="fill:#282828" data-old_color="#000000"/><path d="M376,32c-4.424,0-8-3.584-8-8v-8c0-4.416,3.576-8,8-8s8,3.584,8,8v8C384,28.416,380.424,32,376,32z" data-original="#000000" class="" style="fill:#282828" data-old_color="#000000"/><path d="M408,32c-4.424,0-8-3.584-8-8v-8c0-4.416,3.576-8,8-8s8,3.584,8,8v8C416,28.416,412.424,32,408,32z" data-original="#000000" class="" style="fill:#282828" data-old_color="#000000"/><path d="M440,32c-4.424,0-8-3.584-8-8v-8c0-4.416,3.576-8,8-8s8,3.584,8,8v8C448,28.416,444.424,32,440,32z" data-original="#000000" class="" style="fill:#282828" data-old_color="#000000"/><path d="M104.008,224c-2.8,0-5.504-1.472-6.976-4.08c-2.168-3.848-0.808-8.728,3.048-10.896l128-72  c3.856-2.176,8.72-0.8,10.888,3.048s0.808,8.728-3.048,10.896l-128,72C106.68,223.672,105.336,224,104.008,224z" data-original="#000000" class="" style="fill:#282828" data-old_color="#000000"/><path d="M360,224c-1.328,0-2.672-0.328-3.912-1.024l-128.008-72c-3.848-2.168-5.216-7.04-3.056-10.896  c2.168-3.856,7.032-5.232,10.896-3.048l128.008,72c3.848,2.168,5.216,7.04,3.056,10.896C365.512,222.528,362.8,224,360,224z" data-original="#000000" class="" style="fill:#282828" data-old_color="#000000"/><path d="M104.008,256c-2.8,0-5.504-1.472-6.976-4.08c-2.168-3.848-0.808-8.728,3.048-10.896l128-72  c3.856-2.168,8.72-0.8,10.888,3.048s0.808,8.728-3.048,10.896l-128,72C106.68,255.672,105.336,256,104.008,256z" data-original="#000000" class="" style="fill:#282828" data-old_color="#000000"/><path d="M360,256c-1.328,0-2.672-0.328-3.912-1.024l-128.008-72c-3.848-2.168-5.216-7.04-3.056-10.896s7.032-5.224,10.896-3.048  l128.008,72c3.848,2.168,5.216,7.04,3.056,10.896C365.512,254.528,362.8,256,360,256z" data-original="#000000" class="" style="fill:#282828" data-old_color="#000000"/><path d="M104,256c-4.424,0-8-3.584-8-8v-32c0-4.416,3.576-8,8-8s8,3.584,8,8v32C112,252.416,108.424,256,104,256z" data-original="#000000" class="" style="fill:#282828" data-old_color="#000000"/><path d="M360.008,256c-4.424,0-8-3.584-8-8v-32c0-4.416,3.576-8,8-8s8,3.584,8,8v32C368.008,252.416,364.432,256,360.008,256z" data-original="#000000" class="" style="fill:#282828" data-old_color="#000000"/><path d="M128,368c-4.424,0-8-3.576-8-8V234.504c0-4.416,3.576-8,8-8c4.424,0,8,3.584,8,8V360C136,364.424,132.424,368,128,368z" data-original="#000000" class="" style="fill:#282828" data-old_color="#000000"/><path d="M336,368H128c-4.424,0-8-3.576-8-8s3.576-8,8-8h208c4.424,0,8,3.576,8,8S340.424,368,336,368z" data-original="#000000" class="" style="fill:#282828" data-old_color="#000000"/><path d="M336,368c-4.424,0-8-3.576-8-8V234.504c0-4.416,3.576-8,8-8s8,3.584,8,8V360C344,364.424,340.424,368,336,368z" data-original="#000000" class="" style="fill:#282828" data-old_color="#000000"/><path d="M256,368h-48c-4.424,0-8-3.576-8-8v-80c0-4.424,3.576-8,8-8h48c4.424,0,8,3.576,8,8v80C264,364.424,260.424,368,256,368z   M216,352h32v-64h-32V352z" data-original="#000000" class="" style="fill:#282828" data-old_color="#000000"/><path d="M80,256H64c-4.424,0-8-3.584-8-8s3.576-8,8-8h16c4.424,0,8,3.584,8,8S84.424,256,80,256z" data-original="#000000" class="" style="fill:#282828" data-old_color="#000000"/><path d="M80,224H64c-4.424,0-8-3.584-8-8s3.576-8,8-8h16c4.424,0,8,3.584,8,8S84.424,224,80,224z" data-original="#000000" class="" style="fill:#282828" data-old_color="#000000"/><path d="M72,256c-4.424,0-8-3.584-8-8v-32c0-4.416,3.576-8,8-8s8,3.584,8,8v32C80,252.416,76.424,256,72,256z" data-original="#000000" class="" style="fill:#282828" data-old_color="#000000"/><path d="M400,256h-15.992c-4.424,0-8-3.584-8-8s3.576-8,8-8H400c4.424,0,8,3.584,8,8S404.424,256,400,256z" data-original="#000000" class="" style="fill:#282828" data-old_color="#000000"/><path d="M392,368c-4.424,0-8-3.576-8-8V249.504c0-4.416,3.576-8,8-8s8,3.584,8,8V360C400,364.424,396.424,368,392,368z" data-original="#000000" class="" style="fill:#282828" data-old_color="#000000"/><path d="M400,368h-16c-4.424,0-8-3.576-8-8s3.576-8,8-8h16c4.424,0,8,3.576,8,8S404.424,368,400,368z" data-original="#000000" class="" style="fill:#282828" data-old_color="#000000"/><path d="M128,408c-4.424,0-8-3.576-8-8v-16c0-4.424,3.576-8,8-8c4.424,0,8,3.576,8,8v16C136,404.424,132.424,408,128,408z" data-original="#000000" class="" style="fill:#282828" data-old_color="#000000"/><path d="M336,408c-4.424,0-8-3.576-8-8v-16c0-4.424,3.576-8,8-8s8,3.576,8,8v16C344,404.424,340.424,408,336,408z" data-original="#000000" class="" style="fill:#282828" data-old_color="#000000"/><path d="M336,400H128c-4.424,0-8-3.576-8-8s3.576-8,8-8h208c4.424,0,8,3.576,8,8S340.424,400,336,400z" data-original="#000000" class="" style="fill:#282828" data-old_color="#000000"/><path d="M360,128H104c-4.424,0-8-3.584-8-8s3.576-8,8-8h256c4.424,0,8,3.584,8,8S364.424,128,360,128z" data-original="#000000" class="" style="fill:#282828" data-old_color="#000000"/><path d="M360,136c-4.424,0-8-3.584-8-8v-16c0-4.416,3.576-8,8-8s8,3.584,8,8v16C368,132.416,364.424,136,360,136z" data-original="#000000" class="" style="fill:#282828" data-old_color="#000000"/><path d="M104,136c-4.424,0-8-3.584-8-8v-16c0-4.416,3.576-8,8-8s8,3.584,8,8v16C112,132.416,108.424,136,104,136z" data-original="#000000" class="" style="fill:#282828" data-old_color="#000000"/></g> </svg>
