<?xml version="1.0"?>
<svg xmlns="http://www.w3.org/2000/svg" xmlns:xlink="http://www.w3.org/1999/xlink" version="1.1" id="Capa_1" x="0px" y="0px" viewBox="0 0 512 512" style="enable-background:new 0 0 512 512;" xml:space="preserve" width="512px" height="512px" class=""><g><path style="fill:#AAB2BD;" d="M104,132v280c0,17.68-14.32,32-32,32s-32-14.32-32-32V132H104z" data-original="#AAB2BD" class=""/><path style="fill:#CCD1D9;" d="M136,36v376c0,35.36-28.64,64-64,64S8,447.36,8,412V132h32v280c0,17.68,14.32,32,32,32  s32-14.32,32-32V132V36H136z" data-original="#CCD1D9" class=""/><path style="fill:#E6E9ED;" d="M504,36v376c0,35.448-28.64,64-64,64H72c35.36,0,64-28.64,64-64V36H504z" data-original="#E6E9ED" class=""/><path style="fill:#CCD1D9;" d="M472,36v376c0,35.448-28.64,64-64,64h32c35.36,0,64-28.552,64-64V36H472z" data-original="#CCD1D9" class=""/><rect x="184" y="84" style="fill:#656D78;" width="272" height="40" data-original="#656D78"/><g>
	<polygon style="fill:#39B1A7" points="440,360.64 440,428 400,428 360,428 360,360.56 400,332  " data-original="#FFCE54" class="active-path" data-old_color="#39b1a7"/>
	<polygon style="fill:#39B1A7" points="280,208.64 280,276 240,276 200,276 200,208.56 240,180  " data-original="#FFCE54" class="active-path" data-old_color="#39b1a7"/>
</g><path d="M296,284H184c-4.424,0-8-3.576-8-8s3.576-8,8-8h112c4.424,0,8,3.576,8,8S300.424,284,296,284z" data-original="#000000" class="" style="fill:#000000"/><path d="M200,284c-4.424,0-8-3.576-8-8v-96c0-4.424,3.576-8,8-8s8,3.576,8,8v96C208,280.424,204.424,284,200,284z" data-original="#000000" class="" style="fill:#000000"/><path d="M280,284c-4.424,0-8-3.576-8-8v-67.432c0-4.424,3.576-8,8-8s8,3.576,8,8V276C288,280.424,284.424,284,280,284z" data-original="#000000" class="" style="fill:#000000"/><path d="M184.008,228c-2.504,0-4.952-1.168-6.512-3.352c-2.568-3.592-1.736-8.592,1.856-11.16l56-40  c3.592-2.568,8.584-1.736,11.16,1.856s1.736,8.592-1.856,11.16l-56,40C187.24,227.512,185.616,228,184.008,228z" data-original="#000000" class="" style="fill:#000000"/><path d="M295.992,228c-1.608,0-3.232-0.488-4.64-1.496l-56-40c-3.592-2.56-4.432-7.56-1.856-11.16s7.568-4.432,11.16-1.856l56,40  c3.592,2.56,4.432,7.56,1.856,11.16C300.944,226.832,298.496,228,295.992,228z" data-original="#000000" class="" style="fill:#000000"/><path d="M240,284c-4.424,0-8-3.576-8-8v-24c0-4.424,3.576-8,8-8s8,3.576,8,8v24C248,280.424,244.424,284,240,284z" data-original="#000000" class="" style="fill:#000000"/><path d="M72,484c-39.704,0-72-32.296-72-72c0-4.424,3.576-8,8-8s8,3.576,8,8c0,30.872,25.128,56,56,56s56-25.128,56-56  c0-4.424,3.576-8,8-8s8,3.576,8,8C144,451.704,111.704,484,72,484z" data-original="#000000" class="" style="fill:#000000"/><path d="M72,452c-22.056,0-40-17.944-40-40c0-4.424,3.576-8,8-8s8,3.576,8,8c0,13.232,10.768,24,24,24s24-10.768,24-24  c0-4.424,3.576-8,8-8s8,3.576,8,8C112,434.056,94.056,452,72,452z" data-original="#000000" class="" style="fill:#000000"/><path d="M440,484H72c-4.424,0-8-3.576-8-8s3.576-8,8-8h368c4.424,0,8,3.576,8,8S444.424,484,440,484z" data-original="#000000" class="" style="fill:#000000"/><path d="M440,484c-4.424,0-8-3.576-8-8s3.576-8,8-8c30.872,0,56-25.128,56-56c0-4.424,3.576-8,8-8s8,3.576,8,8  C512,451.704,479.704,484,440,484z" data-original="#000000" class="" style="fill:#000000"/><path d="M504,420c-4.424,0-8-3.576-8-8V36c0-4.424,3.576-8,8-8s8,3.576,8,8v376C512,416.424,508.424,420,504,420z" data-original="#000000" class="" style="fill:#000000"/><path d="M136,420c-4.424,0-8-3.576-8-8V36c0-4.424,3.576-8,8-8s8,3.576,8,8v376C144,416.424,140.424,420,136,420z" data-original="#000000" class="" style="fill:#000000"/><path d="M504,44H136c-4.424,0-8-3.576-8-8s3.576-8,8-8h368c4.424,0,8,3.576,8,8S508.424,44,504,44z" data-original="#000000" class="" style="fill:#000000"/><path d="M8,420c-4.424,0-8-3.576-8-8V132c0-4.424,3.576-8,8-8s8,3.576,8,8v280C16,416.424,12.424,420,8,420z" data-original="#000000" class="" style="fill:#000000"/><path d="M104,140H8c-4.424,0-8-3.576-8-8s3.576-8,8-8h96c4.424,0,8,3.576,8,8C112,136.424,108.424,140,104,140z" data-original="#000000" class="" style="fill:#000000"/><path d="M104,420c-4.424,0-8-3.576-8-8V36c0-4.424,3.576-8,8-8s8,3.576,8,8v376C112,416.424,108.424,420,104,420z" data-original="#000000" class="" style="fill:#000000"/><path d="M40,420c-4.424,0-8-3.576-8-8V132c0-4.424,3.576-8,8-8s8,3.576,8,8v280C48,416.424,44.424,420,40,420z" data-original="#000000" class="" style="fill:#000000"/><path d="M136,44h-32c-4.424,0-8-3.576-8-8s3.576-8,8-8h32c4.424,0,8,3.576,8,8S140.424,44,136,44z" data-original="#000000" class="" style="fill:#000000"/><path d="M456,132H184c-4.424,0-8-3.576-8-8V84c0-4.424,3.576-8,8-8h272c4.424,0,8,3.576,8,8v40C464,128.424,460.424,132,456,132z   M192,116h256V92H192V116z" data-original="#000000" class="" style="fill:#000000"/><path d="M456,196H344c-4.424,0-8-3.576-8-8s3.576-8,8-8h112c4.424,0,8,3.576,8,8S460.424,196,456,196z" data-original="#000000" class="" style="fill:#000000"/><path d="M456,236H344c-4.424,0-8-3.576-8-8s3.576-8,8-8h112c4.424,0,8,3.576,8,8S460.424,236,456,236z" data-original="#000000" class="" style="fill:#000000"/><path d="M400,276h-56c-4.424,0-8-3.576-8-8s3.576-8,8-8h56c4.424,0,8,3.576,8,8S404.424,276,400,276z" data-original="#000000" class="" style="fill:#000000"/><path d="M456,436H344c-4.424,0-8-3.576-8-8s3.576-8,8-8h112c4.424,0,8,3.576,8,8S460.424,436,456,436z" data-original="#000000" class="" style="fill:#000000"/><path d="M360,436c-4.424,0-8-3.576-8-8v-96c0-4.424,3.576-8,8-8s8,3.576,8,8v96C368,432.424,364.424,436,360,436z" data-original="#000000" class="" style="fill:#000000"/><path d="M440,436c-4.424,0-8-3.576-8-8v-67.432c0-4.424,3.576-8,8-8s8,3.576,8,8V428C448,432.424,444.424,436,440,436z" data-original="#000000" class="" style="fill:#000000"/><path d="M344.008,380c-2.504,0-4.952-1.168-6.512-3.352c-2.568-3.592-1.736-8.592,1.856-11.16l56-40  c3.584-2.576,8.584-1.744,11.16,1.856c2.568,3.592,1.736,8.592-1.856,11.16l-56,40C347.24,379.512,345.616,380,344.008,380z" data-original="#000000" class="" style="fill:#000000"/><path d="M455.992,380c-1.608,0-3.232-0.488-4.64-1.496l-56-40c-3.592-2.56-4.432-7.56-1.856-11.16s7.568-4.432,11.16-1.856l56,40  c3.592,2.56,4.432,7.56,1.856,11.16C460.944,378.832,458.496,380,455.992,380z" data-original="#000000" class="" style="fill:#000000"/><path d="M400,436c-4.424,0-8-3.576-8-8v-24c0-4.424,3.576-8,8-8s8,3.576,8,8v24C408,432.424,404.424,436,400,436z" data-original="#000000" class="" style="fill:#000000"/><path d="M296,348H184c-4.424,0-8-3.576-8-8s3.576-8,8-8h112c4.424,0,8,3.576,8,8S300.424,348,296,348z" data-original="#000000" class="" style="fill:#000000"/><path d="M296,388H184c-4.424,0-8-3.576-8-8s3.576-8,8-8h112c4.424,0,8,3.576,8,8S300.424,388,296,388z" data-original="#000000" class="" style="fill:#000000"/><path d="M240,428h-56c-4.424,0-8-3.576-8-8s3.576-8,8-8h56c4.424,0,8,3.576,8,8S244.424,428,240,428z" data-original="#000000" class="" style="fill:#000000"/></g> </svg>
