<?xml version="1.0"?>
<svg xmlns="http://www.w3.org/2000/svg" xmlns:xlink="http://www.w3.org/1999/xlink" version="1.1" id="Capa_1" x="0px" y="0px" viewBox="0 0 512 512" style="enable-background:new 0 0 512 512;" xml:space="preserve" width="512px" height="512px" class=""><g><polygon style="fill:#AAB2BD;" points="400,472 400,504 48,504 48,72 80,72 80,472 " data-original="#AAB2BD" class=""/><polygon style="fill:#CCD1D9;" points="432,440 432,472 400,472 80,472 80,72 80,40 112,40 112,360 112,440 " data-original="#CCD1D9" class=""/><polygon style="fill:#E6E9ED;" points="464,360 464,440 432,440 112,440 112,360 208,360 272,360 304,360 368,360 " data-original="#E6E9ED" class=""/><path style="fill:#FFC100" d="M192,72c8.88,0,16,7.12,16,16c0,8.8-7.12,16-16,16c-8.8,0-16-7.2-16-16C176,79.12,183.2,72,192,72z" data-original="#FFCE54" class="" data-old_color="#FFC900"/><path style="fill:#F5F7FA;" d="M384,88c0-13.28,10.72-24,24-24s24,10.72,24,24s-10.72,24-24,24h-52c-6.64,0-12-5.36-12-12  s5.36-12,12-12H384z" data-original="#F5F7FA" class=""/><rect x="272" y="304" style="fill:#39B1A7" width="32" height="56" data-original="#ED5565" class="" data-old_color="#ED5565"/><path style="fill:#5D9CEC;" d="M192,104c8.88,0,16-7.2,16-16c0-8.88-7.12-16-16-16c-8.8,0-16,7.12-16,16C176,96.8,183.2,104,192,104  z M464,8v352h-96V249.2l24,14.8v-32l-104-64l-104,64v32l24-14.8V360h-96V40V8H464z M432,88c0-13.28-10.72-24-24-24s-24,10.72-24,24  h-28c-6.64,0-12,5.36-12,12s5.36,12,12,12h52C421.28,112,432,101.28,432,88z" data-original="#5D9CEC" class=""/><polygon style="fill:#39B1A7" points="368,249.2 288,200 208,249.2 184,264 184,232 288,168 392,232 392,264 " data-original="#ED5565" class="" data-old_color="#ED5565"/><polygon style="fill:#F5F7FA;" points="368,249.2 368,360 304,360 304,304 272,304 272,360 208,360 208,249.2 288,200 " data-original="#F5F7FA" class=""/><polygon style="fill:#E6E9ED;" points="336,229.52 336,360 368,360 368,249.2 " data-original="#E6E9ED" class=""/><rect x="432" y="8" style="fill:#4A89DC;" width="32" height="352" data-original="#4A89DC" class=""/><rect x="432" y="360" style="fill:#CCD1D9;" width="32" height="80" data-original="#CCD1D9" class=""/><polygon style="fill:#278A83" points="360,244.28 368,249.2 392,264 392,232 360,212.304 " data-original="#DA4453" class="" data-old_color="#288C84"/><path d="M464,368H112c-4.424,0-8-3.576-8-8V8c0-4.424,3.576-8,8-8h352c4.424,0,8,3.576,8,8v352C472,364.424,468.424,368,464,368z   M120,352h336V16H120V352z" data-original="#000000" class="active-path" style="fill:#000000"/><path d="M208,368c-4.424,0-8-3.576-8-8V249.232c0-4.424,3.576-8,8-8s8,3.576,8,8V360C216,364.424,212.424,368,208,368z" data-original="#000000" class="active-path" style="fill:#000000"/><path d="M368,368c-4.424,0-8-3.576-8-8V249.232c0-4.424,3.576-8,8-8s8,3.576,8,8V360C376,364.424,372.424,368,368,368z" data-original="#000000" class="active-path" style="fill:#000000"/><path d="M184.008,240c-2.688,0-5.312-1.352-6.824-3.808c-2.312-3.768-1.144-8.696,2.616-11.008l104-64  c3.776-2.32,8.696-1.144,11.008,2.616c2.312,3.768,1.144,8.696-2.616,11.008l-104,64C186.88,239.616,185.44,240,184.008,240z" data-original="#000000" class="active-path" style="fill:#000000"/><path d="M391.992,240c-1.432,0-2.872-0.384-4.184-1.184l-104-64c-3.76-2.312-4.928-7.24-2.616-11.008  c2.312-3.76,7.224-4.936,11.008-2.616l104,64c3.76,2.312,4.928,7.24,2.616,11.008C397.304,238.648,394.68,240,391.992,240z" data-original="#000000" class="active-path" style="fill:#000000"/><path d="M184.008,272c-2.688,0-5.312-1.352-6.824-3.808c-2.312-3.768-1.144-8.696,2.616-11.008l104-64  c3.776-2.328,8.696-1.152,11.008,2.616s1.144,8.696-2.616,11.008l-104,64C186.88,271.616,185.44,272,184.008,272z" data-original="#000000" class="active-path" style="fill:#000000"/><path d="M391.992,272c-1.432,0-2.872-0.384-4.184-1.184l-104-64c-3.76-2.312-4.928-7.24-2.616-11.008s7.224-4.944,11.008-2.616  l104,64c3.76,2.312,4.928,7.24,2.616,11.008C397.304,270.648,394.68,272,391.992,272z" data-original="#000000" class="active-path" style="fill:#000000"/><path d="M184,272c-4.424,0-8-3.576-8-8v-32c0-4.424,3.576-8,8-8s8,3.576,8,8v32C192,268.424,188.424,272,184,272z" data-original="#000000" class="active-path" style="fill:#000000"/><path d="M392,272c-4.424,0-8-3.576-8-8v-32c0-4.424,3.576-8,8-8s8,3.576,8,8v32C400,268.424,396.424,272,392,272z" data-original="#000000" class="active-path" style="fill:#000000"/><path d="M304,368h-32c-4.424,0-8-3.576-8-8v-56c0-4.424,3.576-8,8-8h32c4.424,0,8,3.576,8,8v56C312,364.424,308.424,368,304,368z   M280,352h16v-40h-16V352z" data-original="#000000" class="active-path" style="fill:#000000"/><path d="M356,119.992c-11.032,0-20-8.968-20-20s8.968-20,20-20c4.424,0,8,3.576,8,8s-3.576,8-8,8c-2.2,0-4,1.8-4,4s1.8,4,4,4  c4.424,0,8,3.576,8,8S360.424,119.992,356,119.992z" data-original="#000000" class="active-path" style="fill:#000000"/><path d="M408,119.992c-4.424,0-8-3.576-8-8s3.576-8,8-8c8.824,0,16-7.176,16-16s-7.176-16-16-16s-16,7.176-16,16  c0,4.424-3.576,8-8,8s-8-3.576-8-8c0-17.648,14.352-32,32-32s32,14.352,32,32S425.648,119.992,408,119.992z" data-original="#000000" class="active-path" style="fill:#000000"/><path d="M408,119.992h-52c-4.424,0-8-3.576-8-8s3.576-8,8-8h52c4.424,0,8,3.576,8,8S412.424,119.992,408,119.992z" data-original="#000000" class="active-path" style="fill:#000000"/><path d="M384,95.992h-28c-4.424,0-8-3.576-8-8s3.576-8,8-8h28c4.424,0,8,3.576,8,8S388.424,95.992,384,95.992z" data-original="#000000" class="active-path" style="fill:#000000"/><path d="M192.016,111.992c-13.232,0-24-10.768-24-24s10.768-24,24-24s24,10.768,24,24S205.248,111.992,192.016,111.992z   M192.016,79.992c-4.416,0-8,3.584-8,8s3.584,8,8,8s8-3.584,8-8S196.432,79.992,192.016,79.992z" data-original="#000000" class="active-path" style="fill:#000000"/><path d="M192.016,55.992c-4.424,0-8-3.576-8-8v-8c0-4.424,3.576-8,8-8s8,3.576,8,8v8C200.016,52.416,196.44,55.992,192.016,55.992z" data-original="#000000" class="active-path" style="fill:#000000"/><path d="M192.016,143.992c-4.424,0-8-3.576-8-8v-8c0-4.424,3.576-8,8-8s8,3.576,8,8v8  C200.016,140.416,196.44,143.992,192.016,143.992z" data-original="#000000" class="active-path" style="fill:#000000"/><path d="M163.728,67.704c-2.048,0-4.096-0.784-5.656-2.344l-5.656-5.656c-3.128-3.128-3.128-8.184,0-11.312s8.184-3.128,11.312,0  l5.656,5.656c3.128,3.128,3.128,8.184,0,11.312C167.824,66.92,165.776,67.704,163.728,67.704z" data-original="#000000" class="active-path" style="fill:#000000"/><path d="M225.952,129.928c-2.048,0-4.096-0.784-5.656-2.344l-5.656-5.656c-3.128-3.128-3.128-8.184,0-11.312s8.184-3.128,11.312,0  l5.656,5.656c3.128,3.128,3.128,8.184,0,11.312C230.048,129.152,228,129.928,225.952,129.928z" data-original="#000000" class="active-path" style="fill:#000000"/><path d="M152,95.992h-8c-4.424,0-8-3.576-8-8s3.576-8,8-8h8c4.424,0,8,3.576,8,8S156.424,95.992,152,95.992z" data-original="#000000" class="active-path" style="fill:#000000"/><path d="M240,95.992h-8c-4.424,0-8-3.576-8-8s3.576-8,8-8h8c4.424,0,8,3.576,8,8S244.424,95.992,240,95.992z" data-original="#000000" class="active-path" style="fill:#000000"/><path d="M158.064,129.944c-2.048,0-4.096-0.784-5.656-2.344c-3.128-3.128-3.128-8.184,0-11.312l5.656-5.656  c3.128-3.128,8.184-3.128,11.312,0s3.128,8.184,0,11.312l-5.656,5.656C162.16,129.168,160.112,129.944,158.064,129.944z" data-original="#000000" class="active-path" style="fill:#000000"/><path d="M220.28,67.712c-2.048,0-4.096-0.784-5.656-2.344c-3.128-3.128-3.128-8.184,0-11.312l5.656-5.656  c3.128-3.128,8.184-3.128,11.312,0s3.128,8.184,0,11.312l-5.656,5.656C224.376,66.928,222.328,67.712,220.28,67.712z" data-original="#000000" class="active-path" style="fill:#000000"/><path d="M112,448c-4.424,0-8-3.576-8-8v-80c0-4.424,3.576-8,8-8s8,3.576,8,8v80C120,444.424,116.424,448,112,448z" data-original="#000000" class="active-path" style="fill:#000000"/><path d="M464,448c-4.424,0-8-3.576-8-8v-80c0-4.424,3.576-8,8-8s8,3.576,8,8v80C472,444.424,468.424,448,464,448z" data-original="#000000" class="active-path" style="fill:#000000"/><path d="M464,448H112c-4.424,0-8-3.576-8-8s3.576-8,8-8h352c4.424,0,8,3.576,8,8S468.424,448,464,448z" data-original="#000000" class="active-path" style="fill:#000000"/><path d="M400,512H48c-4.424,0-8-3.576-8-8V72c0-4.424,3.576-8,8-8h31.992c4.424,0,8,3.576,8,8s-3.576,8-8,8H56v416h336v-24  c0-4.424,3.576-8,8-8s8,3.576,8,8v32C408,508.424,404.424,512,400,512z" data-original="#000000" class="active-path" style="fill:#000000"/><path d="M432,480H80c-4.424,0-8-3.576-8-8V40c0-4.424,3.576-8,8-8h31.992c4.424,0,8,3.576,8,8s-3.576,8-8,8H88v416h336v-24  c0-4.424,3.576-8,8-8s8,3.576,8,8v32C440,476.424,436.424,480,432,480z" data-original="#000000" class="active-path" style="fill:#000000"/><path d="M360,408H216c-4.424,0-8-3.576-8-8s3.576-8,8-8h144c4.424,0,8,3.576,8,8S364.424,408,360,408z" data-original="#000000" class="active-path" style="fill:#000000"/></g> </svg>
