<?xml version="1.0" encoding="utf-8"?>
<!-- Generator: Adobe Illustrator 16.0.0, SVG Export Plug-In . SVG Version: 6.00 Build 0)  -->
<!DOCTYPE svg PUBLIC "-//W3C//DTD SVG 1.1//EN" "http://www.w3.org/Graphics/SVG/1.1/DTD/svg11.dtd">
<svg version="1.1" id="Layer_1" xmlns="http://www.w3.org/2000/svg" xmlns:xlink="http://www.w3.org/1999/xlink" x="0px" y="0px"
	 width="400px" height="400px" viewBox="0 0 400 400" enable-background="new 0 0 400 400" xml:space="preserve">
<g>
	<path fill="#FFFFFF" d="M28.924,129.065L167.665,24.444l138.74,104.621c1.957,1.476,4.25,2.189,6.525,2.189
		c3.29,0,6.539-1.49,8.672-4.319c3.609-4.786,2.654-11.59-2.132-15.199L174.198,2.188c-3.866-2.917-9.201-2.917-13.067,0
		L15.859,111.737c-4.786,3.609-5.739,10.413-2.131,15.199C17.335,131.72,24.139,132.673,28.924,129.065z"/>
	<path fill="#FFFFFF" d="M376.028,290.268c13.289-16.44,16.155-38.716,7.479-58.135c-8.562-19.164-26.05-31.232-46.777-32.283
		c-1.059-0.054-2.125-0.082-3.197-0.082c-3.318,0-6.564,0.29-9.742,0.792v-33.949c0-3.406-1.599-6.613-4.319-8.664L174.198,48.397
		c-3.866-2.917-9.201-2.917-13.067,0L15.857,157.947c-2.719,2.051-4.319,5.258-4.319,8.664v184.444
		c0,5.992,4.858,10.852,10.852,10.852h223.784l27.534,34.063c2.06,2.549,5.162,4.031,8.439,4.031s6.38-1.482,8.439-4.031
		l30.723-38.008c0.003-0.004,0.005-0.007,0.008-0.01L376.028,290.268L376.028,290.268z M33.244,172.021L167.665,70.655
		l134.421,101.366v36.322c-7.929,4.664-14.756,11.014-19.938,18.584c-11.222-16.387-30.068-27.159-51.386-27.159
		c-1.073,0-2.139,0.028-3.195,0.081c-20.73,1.051-38.218,13.119-46.78,32.283c-8.675,19.418-5.81,41.694,7.48,58.135l40.365,49.937
		H33.243L33.244,172.021L33.244,172.021z M205.146,276.624c-8.13-10.058-9.871-23.713-4.542-35.638
		c5.164-11.557,15.655-18.832,28.066-19.461c0.693-0.034,1.391-0.053,2.094-0.053c22.35,0,40.533,18.183,40.533,40.534
		c0,5.993,4.859,10.852,10.852,10.852c5.994,0,10.852-4.858,10.852-10.852c0-22.351,18.184-40.534,40.533-40.534
		c0.702,0,1.4,0.019,2.096,0.055c12.41,0.629,22.9,7.904,28.064,19.461c5.328,11.925,3.587,25.579-4.542,35.637l-77.003,95.263
		L205.146,276.624L205.146,276.624z"/>
</g>
</svg>
