<?xml version="1.0" encoding="utf-8"?>
<!-- Generator: Adobe Illustrator 16.0.0, SVG Export Plug-In . SVG Version: 6.00 Build 0)  -->
<!DOCTYPE svg PUBLIC "-//W3C//DTD SVG 1.1//EN" "http://www.w3.org/Graphics/SVG/1.1/DTD/svg11.dtd">
<svg version="1.1" id="Layer_1" xmlns="http://www.w3.org/2000/svg" xmlns:xlink="http://www.w3.org/1999/xlink" x="0px" y="0px"
	 width="400px" height="400px" viewBox="0 0 400 400" enable-background="new 0 0 400 400" xml:space="preserve">
<g>
	<path fill="#FFFFFF" d="M396.009,157.375L261.721,56.11c-3.576-2.697-8.504-2.697-12.08,0l-22.076,16.647L205.489,56.11
		c-3.577-2.697-8.503-2.697-12.081,0l-21.525,16.232L150.358,56.11c-3.577-2.697-8.503-2.697-12.08,0L3.99,157.375
		C1.478,159.271,0,162.238,0,165.385v170.496c0,5.54,4.491,10.031,10.031,10.031h55.131h56.229h157.218h55.131h56.229
		c5.54,0,10.031-4.491,10.031-10.031V165.385C400,162.238,398.522,159.271,396.009,157.375L396.009,157.375z M379.938,325.85
		h-36.166V165.385c0-3.148-1.478-6.113-3.991-8.009L244.227,85.32l11.454-8.638l124.257,93.703V325.85z M288.641,325.85V165.385
		c0-3.148-1.479-6.113-3.992-8.009l-96.103-72.469l10.905-8.223l124.258,93.702v155.466h-35.068V325.85z M160.748,325.849h-29.325
		h-3.531v-72.74h32.856V325.849z M180.81,325.849v-82.771c0-5.54-4.491-10.031-10.031-10.031H117.86
		c-5.54,0-10.031,4.491-10.031,10.031v82.771H75.193H20.063V170.383l124.257-93.702l124.259,93.702v155.466H180.81z"/>
</g>
</svg>
