<?xml version="1.0" encoding="utf-8"?>
<!-- Generator: Adobe Illustrator 16.0.0, SVG Export Plug-In . SVG Version: 6.00 Build 0)  -->
<!DOCTYPE svg PUBLIC "-//W3C//DTD SVG 1.1//EN" "http://www.w3.org/Graphics/SVG/1.1/DTD/svg11.dtd">
<svg version="1.1" id="Layer_1" xmlns="http://www.w3.org/2000/svg" xmlns:xlink="http://www.w3.org/1999/xlink" x="0px" y="0px"
	 width="400px" height="400px" viewBox="0 0 400 400" enable-background="new 0 0 400 400" xml:space="preserve">
<g>
	<path fill="#FFFFFF" d="M362.371,18.505H37.63C16.881,18.505,0,35.385,0,56.135v219.831c0,20.749,16.881,37.63,37.63,37.63h123.627
		l-6.65,47.082h-31.19c-5.749,0-10.409,4.66-10.409,10.409s4.66,10.409,10.409,10.409h40.232h72.704h40.232
		c5.749,0,10.409-4.66,10.409-10.409s-4.66-10.409-10.409-10.409h-31.191l-6.65-47.082h123.627c20.749,0,37.63-16.881,37.63-37.63
		V56.135C400,35.385,383.12,18.505,362.371,18.505L362.371,18.505z M37.63,39.324h324.741c9.27,0,16.812,7.541,16.812,16.812V248.54
		H20.819V56.135C20.819,46.865,28.36,39.324,37.63,39.324z M224.369,360.676h-48.737l6.65-47.082h35.438L224.369,360.676
		L224.369,360.676z M362.371,292.775H37.63c-9.269,0-16.811-7.541-16.811-16.811v-6.607h358.362v6.607
		C379.181,285.234,371.641,292.775,362.371,292.775L362.371,292.775z"/>
	<path fill="#FFFFFF" d="M151.439,205.271h97.121c5.749,0,10.41-4.661,10.41-10.41v-61.653c0-3.267-1.533-6.344-4.143-8.312
		l-48.56-36.619c-3.71-2.799-8.826-2.799-12.536,0l-48.56,36.619c-2.608,1.968-4.142,5.044-4.142,8.312v61.653
		C141.03,200.61,145.69,205.271,151.439,205.271L151.439,205.271z M161.849,138.395l38.15-28.77l38.151,28.77v46.056h-27.047
		v-21.817c0-2.103-1.705-3.807-3.807-3.807h-14.595c-2.103,0-3.807,1.704-3.807,3.807v21.817h-27.047V138.395z"/>
</g>
</svg>
