<?xml version="1.0" encoding="utf-8"?>
<!-- Generator: Adobe Illustrator 16.0.0, SVG Export Plug-In . SVG Version: 6.00 Build 0)  -->
<!DOCTYPE svg PUBLIC "-//W3C//DTD SVG 1.1//EN" "http://www.w3.org/Graphics/SVG/1.1/DTD/svg11.dtd">
<svg version="1.1" id="Layer_1" xmlns="http://www.w3.org/2000/svg" xmlns:xlink="http://www.w3.org/1999/xlink" x="0px" y="0px"
	 width="512px" height="512px" viewBox="0 0 512 512" enable-background="new 0 0 512 512" xml:space="preserve">
<g>
	<path fill="none" d="M74.406,201.238V482H141.5h101.918h29.977H367.5h74.934V201.492L259.09,35.203L74.406,201.238z
		 M309.63,233.576c2.681-1.275,5.426-1.916,8.235-1.916c2.682,0,5.268,0.512,7.757,1.532c2.49,1.023,4.693,2.394,6.608,4.118
		c1.915,1.724,3.478,3.735,4.692,6.033c1.212,2.298,1.82,4.726,1.82,7.278c0,3.705-1.407,7.344-4.214,10.917l-49.033,63.015
		l53.055,67.037c2.937,3.705,4.405,7.536,4.405,11.492c0,2.682-0.64,5.268-1.915,7.757c-1.277,2.49-3.002,4.663-5.171,6.513
		c-2.173,1.853-4.63,3.322-7.375,4.405c-2.747,1.086-5.524,1.628-8.331,1.628c-3.064,0-6.066-0.7-9.002-2.106
		c-2.939-1.404-5.621-3.702-8.045-6.896l-48.65-64.164l-48.649,64.738c-2.173,2.939-4.567,5.076-7.183,6.417
		c-2.619,1.341-5.333,2.011-8.14,2.011c-2.682,0-5.3-0.542-7.853-1.628c-2.556-1.083-4.854-2.52-6.896-4.31
		c-2.044-1.787-3.672-3.86-4.884-6.225c-1.215-2.361-1.82-4.818-1.82-7.374c0-3.702,1.275-7.213,3.831-10.535l54.013-68.186
		l-48.649-61.291c-2.939-3.702-4.405-7.533-4.405-11.493c0-2.807,0.637-5.458,1.915-7.949c1.275-2.49,2.999-4.692,5.171-6.608
		c2.17-1.915,4.597-3.415,7.278-4.501c2.682-1.083,5.489-1.628,8.428-1.628c2.936,0,5.905,0.703,8.906,2.107
		c2.999,1.406,5.65,3.768,7.949,7.086l43.669,58.418l45.203-59.185C304.521,237.023,306.948,234.854,309.63,233.576z"/>
	<path fill="#282828" d="M506.875,219.449L269.199,3.887c-5.781-5.242-14.531-5.133-20.172,0.035L5.168,223.16
		c-14.75,13.262,5.277,35.582,20.035,22.316l19.227-17.285v260.125c-0.027,13.027,9.828,23.656,22.543,23.684h382.242
		c12.766,0,23.168-10.379,23.195-23.191V228.68l14.336,13C501.43,255,521.578,232.785,506.875,219.449z M442.434,482H367.5h-94.105
		h-29.977H141.5H74.406V201.238L259.09,35.203l183.344,166.289V482z"/>
	<path fill="#282828" d="M213.479,240.854c-2.298-3.319-4.95-5.68-7.949-7.086c-3.001-1.404-5.97-2.107-8.906-2.107
		c-2.939,0-5.746,0.544-8.428,1.628c-2.681,1.086-5.108,2.586-7.278,4.501c-2.172,1.916-3.896,4.118-5.171,6.608
		c-1.278,2.49-1.915,5.142-1.915,7.949c0,3.959,1.466,7.791,4.405,11.493l48.649,61.291l-54.013,68.186
		c-2.556,3.322-3.831,6.833-3.831,10.535c0,2.556,0.604,5.013,1.82,7.374c1.212,2.364,2.84,4.438,4.884,6.225
		c2.041,1.79,4.339,3.227,6.896,4.31c2.553,1.086,5.171,1.628,7.853,1.628c2.807,0,5.521-0.67,8.14-2.011
		c2.616-1.341,5.01-3.478,7.183-6.417l48.649-64.738l48.65,64.164c2.424,3.193,5.105,5.491,8.045,6.896
		c2.936,1.406,5.938,2.106,9.002,2.106c2.807,0,5.584-0.542,8.331-1.628c2.745-1.083,5.202-2.553,7.375-4.405
		c2.169-1.85,3.894-4.022,5.171-6.513c1.275-2.489,1.915-5.075,1.915-7.757c0-3.956-1.469-7.787-4.405-11.492l-53.055-67.037
		l49.033-63.015c2.807-3.573,4.214-7.212,4.214-10.917c0-2.553-0.608-4.98-1.82-7.278c-1.215-2.298-2.777-4.31-4.692-6.033
		c-1.915-1.724-4.118-3.095-6.608-4.118c-2.489-1.021-5.075-1.532-7.757-1.532c-2.81,0-5.555,0.64-8.235,1.916
		c-2.682,1.278-5.109,3.447-7.278,6.512l-45.203,59.185L213.479,240.854z"/>
</g>
</svg>
