<?xml version="1.0" encoding="utf-8"?>
<!-- Generator: Adobe Illustrator 16.0.0, SVG Export Plug-In . SVG Version: 6.00 Build 0)  -->
<!DOCTYPE svg PUBLIC "-//W3C//DTD SVG 1.1//EN" "http://www.w3.org/Graphics/SVG/1.1/DTD/svg11.dtd">
<svg version="1.1" id="Layer_1" xmlns="http://www.w3.org/2000/svg" xmlns:xlink="http://www.w3.org/1999/xlink" x="0px" y="0px"
	 width="400px" height="400px" viewBox="0 0 400 400" enable-background="new 0 0 400 400" xml:space="preserve">
<g display="none">
	<path display="inline" fill="#F7EDEA" d="M393.872,202.03c0,25.042-15.748,49.004-24.778,70.779
		c-9.361,22.574-22.107,43.969-39.121,60.981c-17.012,17.012-35.956,35.668-58.53,45.029c-21.776,9.03-48.188,1.684-73.23,1.684
		c-25.042,0-45.678-6.583-67.454-15.613c-22.574-9.361-44.135-17.247-61.147-34.26s-29.729-36.57-39.091-59.145
		c-9.03-21.776-24.392-44.414-24.392-69.456c0-25.042,15.524-47.613,24.554-69.39c9.361-22.575,17.486-46.628,34.5-63.641
		c17.012-17.013,42.408-21.9,64.983-31.261c21.775-9.029,43.004-21.061,68.046-21.061c25.042,0,46.565,11.322,68.342,20.352
		c22.573,9.361,43.333,19.301,60.345,36.313c17.012,17.013,33.726,34.963,43.087,57.537
		C379.017,152.657,393.872,176.988,393.872,202.03z"/>
	<g display="inline" opacity="0.5">
		<path fill="#A13718" d="M282.535,246.058c0,0-62.145-114.208-62.179-114.263c-9.976-16.803-34.304-16.821-44.292,0
			c-0.033,0.055-0.064,0.112-0.096,0.167l-62.081,114.096c-10.107,17.167,2.254,38.817,22.2,38.817h124.25
			C280.263,284.875,292.648,263.239,282.535,246.058z M260.337,274.573h-124.25c-11.984,0-19.411-13.031-13.29-23.343
			c0.033-0.057,0.066-0.11,0.096-0.17l62.075-114.084c6.008-9.99,20.484-9.978,26.485,0c0,0,62.139,114.198,62.171,114.253
			C279.741,261.532,272.328,274.573,260.337,274.573z"/>
		<path fill="#A13718" d="M198.21,161.249c-8.52,0-15.453,6.933-15.453,15.454v30.907c0,8.52,6.933,15.452,15.453,15.452
			c8.523,0,15.455-6.933,15.455-15.452v-30.907C213.665,168.182,206.733,161.249,198.21,161.249z M203.362,207.609
			c0,2.839-2.311,5.149-5.152,5.149c-2.84,0-5.15-2.311-5.15-5.149v-30.907c0-2.841,2.31-5.152,5.15-5.152
			c2.841,0,5.152,2.311,5.152,5.152V207.609z"/>
		<path fill="#A13718" d="M198.21,233.363c-8.52,0-15.453,6.932-15.453,15.453s6.933,15.454,15.453,15.454
			c8.523,0,15.455-6.933,15.455-15.454S206.733,233.363,198.21,233.363z M198.21,253.969c-2.84,0-5.15-2.311-5.15-5.152
			c0-2.84,2.31-5.149,5.15-5.149c2.841,0,5.152,2.31,5.152,5.149C203.362,251.658,201.052,253.969,198.21,253.969z"/>
	</g>
</g>
<g display="none">
	<path display="inline" fill="#D2EEEB" d="M60.751,338.291c-17.708-17.707-23.513-45.787-32.527-67.569
		c-9.343-22.582-15.458-46.724-15.459-70.783c0.001-24.059,0.203-50.646,9.547-73.228c9.013-21.784,32.883-35.265,50.59-52.972
		c17.708-17.708,36.955-27.643,58.738-36.657c22.581-9.343,43.404-19.011,67.462-19.011c24.06-0.001,46.881,4.835,69.463,14.18
		c21.783,9.012,48.653,14.157,66.36,31.865c17.709,17.707,22.691,44.646,31.703,66.428c9.344,22.583,20.606,45.337,20.607,69.396
		c-0.001,24.06-14.503,45.474-23.848,68.055c-9.013,21.784-15.515,45.303-33.223,63.01c-17.706,17.707-40.931,24.92-62.715,33.934
		c-22.583,9.344-44.289,16.992-68.349,16.992c-24.059,0-48.57-0.876-71.152-10.218C106.168,362.698,78.458,355.999,60.751,338.291z"
		/>
	<g display="inline" opacity="0.7">
		<path fill="#39B1A7" d="M302.983,154.198c-4.504-4.505-10.492-6.984-16.862-6.984c-6.369,0-12.356,2.479-16.861,6.984
			l-80.596,80.597l-33.554-33.552c-4.502-4.504-10.491-6.986-16.86-6.986c-6.369,0-12.356,2.482-16.86,6.986
			c-9.298,9.296-9.298,24.425,0,33.72l50.414,50.413c4.503,4.506,10.491,6.984,16.86,6.984c6.368,0,12.358-2.479,16.861-6.984
			l97.459-97.456c4.502-4.504,6.983-10.493,6.983-16.863C309.967,164.688,307.485,158.702,302.983,154.198z M294.752,179.689
			l-97.459,97.458c-2.305,2.305-5.37,3.575-8.629,3.575c-3.26,0-6.324-1.271-8.629-3.575l-50.414-50.413
			c-4.759-4.76-4.759-12.503,0-17.26c2.305-2.305,5.37-3.574,8.629-3.574c3.26,0,6.324,1.27,8.63,3.574l37.668,37.668
			c2.273,2.272,5.958,2.272,8.23,0l84.714-84.714c2.305-2.305,5.369-3.575,8.629-3.575c3.259,0,6.324,1.27,8.63,3.575
			c2.304,2.305,3.573,5.37,3.573,8.629C298.324,174.318,297.058,177.384,294.752,179.689z"/>
		<path fill="#39B1A7" d="M148.649,177.812c4.908,1.83,9.281,4.641,12.998,8.358c3.71,3.708,6.522,8.084,8.359,12.997
			c0.849,2.275,3.023,3.783,5.452,3.783c2.429,0,4.602-1.507,5.452-3.781c3.695-9.886,11.479-17.672,21.355-21.359
			c2.275-0.849,3.784-3.023,3.784-5.452s-1.508-4.602-3.783-5.454c-4.915-1.838-9.289-4.65-12.999-8.366
			c-3.706-3.7-6.518-8.072-8.357-12.996c-0.849-2.274-3.022-3.783-5.452-3.783c-2.429,0-4.601,1.509-5.452,3.784
			c-1.839,4.92-4.65,9.294-8.362,12.999c-3.706,3.71-8.08,6.523-12.998,8.361c-2.276,0.85-3.785,3.023-3.785,5.454
			C144.862,174.788,146.372,176.963,148.649,177.812z M175.457,160.09c1.641,2.378,3.503,4.608,5.577,6.679
			c2.077,2.08,4.312,3.946,6.693,5.589c-4.799,3.311-8.956,7.47-12.267,12.271c-1.643-2.38-3.506-4.615-5.583-6.691
			c-2.078-2.076-4.311-3.939-6.686-5.58c2.378-1.643,4.61-3.506,6.682-5.582C171.951,164.702,173.815,162.471,175.457,160.09z"/>
		<path fill="#39B1A7" d="M206.271,147.767c3.7,1.378,6.995,3.497,9.797,6.299c2.796,2.796,4.915,6.093,6.3,9.798
			c0.852,2.274,3.024,3.784,5.453,3.784c2.428,0,4.603-1.51,5.453-3.784c2.784-7.451,8.65-13.318,16.096-16.099
			c2.275-0.849,3.784-3.022,3.784-5.452c0.001-2.429-1.506-4.603-3.781-5.453c-3.708-1.385-7.003-3.504-9.801-6.307
			c-2.792-2.789-4.912-6.085-6.298-9.793c-0.851-2.275-3.022-3.784-5.453-3.784c-2.429,0-4.602,1.509-5.453,3.782
			c-1.386,3.71-3.505,7.007-6.301,9.801c-2.795,2.797-6.092,4.917-9.798,6.302c-2.277,0.85-3.785,3.024-3.785,5.454
			C202.486,144.746,203.996,146.919,206.271,147.767z M224.299,138.79c1.273-1.272,2.45-2.618,3.522-4.032
			c1.072,1.414,2.248,2.757,3.52,4.027c1.273,1.277,2.621,2.453,4.039,3.528c-2.854,2.161-5.395,4.704-7.557,7.557
			c-1.073-1.415-2.249-2.761-3.523-4.037c-1.274-1.273-2.62-2.447-4.035-3.521C221.68,141.238,223.025,140.064,224.299,138.79z"/>
	</g>
</g>
<g>
	<path fill="#E4E5E6" d="M6.129,202.03c0,25.042,15.75,49.003,24.779,70.778c9.361,22.574,22.107,43.97,39.119,60.982
		c17.013,17.012,35.957,35.668,58.532,45.029c21.775,9.03,48.188,1.684,73.229,1.684s45.678-6.583,67.454-15.613
		c22.574-9.361,44.134-17.247,61.147-34.26c17.012-17.013,29.729-36.57,39.091-59.145c9.029-21.776,24.392-44.414,24.392-69.456
		c0-25.042-15.524-47.614-24.554-69.39c-9.361-22.575-17.487-46.628-34.5-63.642c-17.012-17.012-42.409-21.899-64.983-31.26
		c-21.776-9.03-43.005-21.061-68.047-21.061s-46.565,11.321-68.341,20.351c-22.574,9.361-43.333,19.302-60.345,36.315
		c-17.012,17.012-33.726,34.962-43.087,57.537C20.985,152.657,6.129,176.988,6.129,202.03z"/>
	<g opacity="0.8">
		<path fill="#323E47" d="M265.027,134.973c-17.37-17.369-40.464-26.935-65.027-26.935c-24.563,0-47.657,9.566-65.026,26.935
			c-17.369,17.369-26.934,40.462-26.934,65.026c0,24.563,9.565,47.657,26.934,65.026c17.369,17.369,40.463,26.935,65.026,26.935
			c24.563,0,47.657-9.565,65.027-26.935c17.368-17.369,26.934-40.463,26.934-65.026
			C291.961,175.435,282.396,152.342,265.027,134.973z M200,281.183c-44.875,0-81.184-36.316-81.184-81.184
			c0-44.875,36.317-81.185,81.184-81.185c44.874,0,81.184,36.316,81.184,81.185C281.184,244.873,244.866,281.183,200,281.183z"/>
		<path fill="#323E47" d="M200,264.993c-8.927,0-16.165-7.238-16.165-16.166v-57.475c0-8.928,7.238-16.166,16.165-16.166
			c8.93,0,16.166,7.237,16.166,16.164v57.477C216.166,257.755,208.928,264.993,200,264.993z M200,254.217
			c2.978,0,5.389-2.415,5.389-5.39v-57.475c0-2.977-2.411-5.389-5.389-5.389c-2.976,0-5.388,2.412-5.388,5.389v57.475
			C194.612,251.802,197.024,254.217,200,254.217z"/>
		<path fill="#323E47" d="M200,167.335c-8.913,0-16.165-7.251-16.165-16.165c0-8.913,7.252-16.165,16.165-16.165
			c8.914,0,16.166,7.252,16.166,16.165C216.166,160.084,208.914,167.335,200,167.335z M200,145.782c-2.97,0-5.388,2.418-5.388,5.388
			c0,2.972,2.418,5.388,5.388,5.388c2.971,0,5.389-2.416,5.389-5.388C205.389,148.2,202.971,145.782,200,145.782z"/>
	</g>
</g>
</svg>
