<?xml version="1.0" standalone="no"?><!DOCTYPE svg PUBLIC "-//W3C//DTD SVG 1.1//EN" "http://www.w3.org/Graphics/SVG/1.1/DTD/svg11.dtd"><svg width="100%" height="100%" viewBox="0 0 1280 800" version="1.1" xmlns="http://www.w3.org/2000/svg" xmlns:xlink="http://www.w3.org/1999/xlink" xml:space="preserve" style="fill-rule:evenodd;clip-rule:evenodd;stroke-linejoin:round;stroke-miterlimit:1.41421;"><g id="Layer1"><path d="M618,214.831c1.41461e-06,-1.28139 -0.509028,-2.51029 -1.41511,-3.41637c-0.906079,-0.906077 -2.13498,-1.4151 -3.41637,-1.4151c-18.7503,-1.11697e-11 -86.5867,-1.11697e-11 -105.337,-1.11697e-11c-1.28139,-3.05489e-06 -2.51029,0.509024 -3.41637,1.4151c-0.906079,0.906077 -1.41511,2.13498 -1.41511,3.41637c1.08571e-11,33.3584 1.08002e-11,228.169 1.08002e-11,228.169l115,0c0,0 -1.13687e-13,-194.81 0,-228.169Z" style="fill:#008080;"/></g><g id="Layer2"><rect x="524" y="410" width="21" height="33" style="fill:#ebebeb;"/><rect x="519" y="233" width="15" height="15" style="fill:#f2f2f2;"/><rect x="519" y="276" width="15" height="15" style="fill:#ebebeb;"/><rect x="519" y="319" width="15" height="15" style="fill:#ebebeb;"/><rect x="519" y="365" width="15" height="15" style="fill:#ebebeb;"/><rect x="552" y="233" width="15" height="15" style="fill:#ebebeb;"/><rect x="552" y="276" width="15" height="15" style="fill:#ebebeb;"/><rect x="552" y="319" width="15" height="15" style="fill:#ebebeb;"/><rect x="552" y="365" width="15" height="15" style="fill:#ebebeb;"/><rect x="585" y="233" width="15" height="15" style="fill:#ebebeb;"/><rect x="585" y="276" width="15" height="15" style="fill:#ebebeb;"/><rect x="585" y="319" width="15" height="15" style="fill:#ebebeb;"/><rect x="585" y="365" width="15" height="15" style="fill:#ebebeb;"/><path d="M707,338c-30.2978,-11.1365 -59.3938,-22.7252 -88,-33l0,138l88,0l0,-105Z" style="fill:#008080;"/><rect x="648" y="403" width="29" height="40" style="fill:#f2f2f2;"/><rect x="637" y="350" width="51" height="19" style="fill:#f2f2f2;"/></g></svg>