<?xml version="1.0" standalone="no"?><!DOCTYPE svg PUBLIC "-//W3C//DTD SVG 1.1//EN" "http://www.w3.org/Graphics/SVG/1.1/DTD/svg11.dtd"><svg width="100%" height="100%" viewBox="0 0 1280 800" version="1.1" xmlns="http://www.w3.org/2000/svg" xmlns:xlink="http://www.w3.org/1999/xlink" xml:space="preserve" style="fill-rule:evenodd;clip-rule:evenodd;stroke-linecap:round;stroke-linejoin:round;stroke-miterlimit:1.41421;"><g id="Layer1"><path d="M877,524.589c0,-6.40053 -5.18865,-11.5892 -11.5892,-11.5892l-576.822,0c-6.40053,0 -11.5892,5.18865 -11.5892,11.5892l0,148.822c0,6.40053 5.18865,11.5892 11.5892,11.5892l576.822,0c6.40053,0 11.5892,-5.18865 11.5892,-11.5892l0,-148.822Z" style="fill:#f2f2f2;stroke-width:4px;stroke:#008080;"/><rect x="630" y="528" width="95" height="127" style="fill:#f2f2f2;stroke-width:4px;stroke:#008080;"/><path d="M877,166.589c0,-6.40053 -4.55811,-11.5892 -10.1808,-11.5892l-579.638,0c-2.81136,0 -5.35657,1.29716 -7.19893,3.39439c-1.84235,2.09721 -2.98187,4.99446 -2.9819,8.19468l-4.25871e-10,148.822c0,6.40053 4.55811,11.5892 10.1808,11.5892l579.638,0c5.62272,0 10.1808,-5.18865 10.1808,-11.5892l0,-148.822Z" style="fill:#f2f2f2;stroke-width:4px;stroke:#008080;"/><path d="M877,166.589c0,-6.40053 -4.55811,-11.5892 -10.1808,-11.5892l-579.638,0c-2.81136,0 -5.35657,1.29716 -7.19893,3.39439c-1.84235,2.09721 -2.98187,4.99446 -2.9819,8.19468l-4.25871e-10,148.822c0,6.40053 4.55811,11.5892 10.1808,11.5892l579.638,0c5.62272,0 10.1808,-5.18865 10.1808,-11.5892l0,-148.822Z" style="fill:#f2f2f2;stroke-width:4px;stroke:#008080;"/><path d="M877,345.589c0,-6.40053 -5.18865,-11.5892 -11.5892,-11.5892l-576.822,0c-6.40053,0 -11.5892,5.18865 -11.5892,11.5892l0,148.822c0,6.40053 5.18865,11.5892 11.5892,11.5892l576.822,0c6.40053,0 11.5892,-5.18865 11.5892,-11.5892l0,-148.822Z" style="fill:#f2f2f2;stroke-width:4px;stroke:#008080;"/><rect x="654" y="624" width="19" height="30" style="fill:#f2f2f2;stroke-width:4px;stroke:#008080;"/><text x="310px" y="270.297px" style="font-family:Futura;font-size:72px;font-weight:500;fill:#008080;">98</text><text x="310px" y="445.379px" style="font-family:Futura;font-size:72px;font-weight:500;fill:#008080;">92</text><text x="311.125px" y="625.379px" style="font-family:Futura;font-size:72px;font-weight:500;fill:#008080;">88</text><path d="M699,231l-60,-57l-55,57l0,72l115,0l0,-72Z" style="fill:#f2f2f2;stroke-width:4px;stroke:#008080;"/><path d="M699,231l-60,-57l-55,57l0,72l115,0l0,-72Z" style="fill:#f2f2f2;stroke-width:6px;stroke:#008080;"/><path d="M771,260.704l-35.4783,-33.7043l-32.5217,33.7043l0,42.5739l68,0l0,-42.5739Z" style="fill:#f2f2f2;stroke-width:6px;stroke:#008080;"/><rect x="601" y="242" width="29" height="25" style="fill:#f2f2f2;stroke-width:2px;stroke:#008080;"/><rect x="660" y="272" width="18" height="31" style="fill:#f2f2f2;stroke-width:2px;stroke:#008080;"/><rect x="716" y="266" width="41" height="37" style="fill:#f2f2f2;stroke-width:4px;stroke:#008080;"/><path d="M730,388l-111,-33l0,132l111,0l0,-99Z" style="fill:#f2f2f2;stroke-width:6px;stroke:#008080;"/><rect x="654" y="436" width="41" height="50" style="fill:#f2f2f2;stroke-width:2px;stroke:#008080;"/><rect x="632" y="396" width="18" height="18" style="fill:#f2f2f2;stroke-width:2px;stroke:#008080;"/><rect x="664" y="396" width="18" height="18" style="fill:#f2f2f2;stroke-width:2px;stroke:#008080;"/><rect x="696" y="396" width="18" height="18" style="fill:#f2f2f2;stroke-width:2px;stroke:#008080;"/><path d="M732,659.63c0,-2.00493 -1.62532,-3.63025 -3.63025,-3.63025l-100.739,0c-2.00493,0 -3.63025,1.62532 -3.63025,3.63025l0,7.2605c0,2.00493 1.62532,3.63025 3.63025,3.63025l100.739,0c2.00493,0 3.63025,-1.62532 3.63025,-3.63025l0,-7.2605Z" style="fill:#f2f2f2;stroke-width:4px;stroke:#008080;"/><rect x="641" y="541" width="28" height="28" style="fill:#f2f2f2;stroke-width:2px;stroke:#008080;"/><rect x="683" y="583" width="28" height="28" style="fill:#f2f2f2;stroke-width:2px;stroke:#008080;"/><rect x="641" y="583" width="28" height="28" style="fill:#f2f2f2;stroke-width:2px;stroke:#008080;"/><rect x="683" y="541" width="28" height="28" style="fill:#f2f2f2;stroke-width:2px;stroke:#008080;"/></g></svg>