<?xml version="1.0" standalone="no"?><!DOCTYPE svg PUBLIC "-//W3C//DTD SVG 1.1//EN" "http://www.w3.org/Graphics/SVG/1.1/DTD/svg11.dtd"><svg width="100%" height="100%" viewBox="0 0 500 500" version="1.1" xmlns="http://www.w3.org/2000/svg" xmlns:xlink="http://www.w3.org/1999/xlink" xml:space="preserve" style="fill-rule:evenodd;clip-rule:evenodd;stroke-linecap:round;stroke-linejoin:round;stroke-miterlimit:1.41421;"><g id="Layer1"><path d="M498,336.594c0,-5.2911 -4.28929,-9.58039 -9.58039,-9.58039l-476.839,0c-5.2911,0 -9.58039,4.28929 -9.58039,9.58039l0,123.026c0,5.2911 4.28929,9.58039 9.58039,9.58039l476.839,0c5.2911,0 9.58039,-4.28929 9.58039,-9.58039l0,-123.026Z" style="fill:#f2f2f2;stroke-width:4px;stroke:#008080;"/><rect x="293.813" y="339.413" width="78.5333" height="104.987" style="fill:#f2f2f2;stroke-width:4px;stroke:#008080;"/><path d="M498,40.6471c0,-5.2911 -3.76804,-9.58039 -8.41615,-9.58039l-479.168,0c-2.32406,0 -4.42809,1.07232 -5.95112,2.80603c-1.52299,1.73367 -2.465,4.12871 -2.46503,6.7742l-1.11265e-09,123.026c0,5.2911 3.76804,9.58039 8.41615,9.58039l479.168,0c4.64811,0 8.41615,-4.28929 8.41615,-9.58039l0,-123.026Z" style="fill:#f2f2f2;stroke-width:4px;stroke:#008080;"/><path d="M498,40.6471c0,-5.2911 -3.76804,-9.58039 -8.41615,-9.58039l-479.168,0c-2.32406,0 -4.42809,1.07232 -5.95112,2.80603c-1.52299,1.73367 -2.465,4.12871 -2.46503,6.7742l-1.11265e-09,123.026c0,5.2911 3.76804,9.58039 8.41615,9.58039l479.168,0c4.64811,0 8.41615,-4.28929 8.41615,-9.58039l0,-123.026Z" style="fill:#f2f2f2;stroke-width:4px;stroke:#008080;"/><path d="M498,188.62c0,-5.2911 -4.28929,-9.58039 -9.58039,-9.58039l-476.839,0c-5.2911,0 -9.58039,4.28929 -9.58039,9.58039l0,123.026c0,5.2911 4.28929,9.58039 9.58039,9.58039l476.839,0c5.2911,0 9.58039,-4.28929 9.58039,-9.58039l0,-123.026Z" style="fill:#f2f2f2;stroke-width:4px;stroke:#008080;"/><rect x="313.653" y="418.773" width="15.7067" height="24.8" style="fill:#f2f2f2;stroke-width:4px;stroke:#008080;"/><text x="29.28px" y="126.379px" style="font-family:Futura;font-size:59.52px;font-weight:500;fill:#008080;">98</text><text x="29.28px" y="271.113px" style="font-family:Futura;font-size:59.52px;font-weight:500;fill:#008080;">92</text><text x="30.21px" y="419.913px" style="font-family:Futura;font-size:59.52px;font-weight:500;fill:#008080;">88</text><path d="M350.853,93.8933l-49.6,-47.12l-45.4667,47.12l0,59.52l95.0667,0l0,-59.52Z" style="fill:#f2f2f2;stroke-width:4px;stroke:#008080;"/><path d="M350.853,93.8933l-49.6,-47.12l-45.4667,47.12l0,59.52l95.0667,0l0,-59.52Z" style="fill:#f2f2f2;stroke-width:6px;stroke:#008080;"/><path d="M410.373,118.449l-29.3287,-27.8623l-26.8846,27.8623l0,35.1944l56.2133,0l0,-35.1944Z" style="fill:#f2f2f2;stroke-width:6px;stroke:#008080;"/><rect x="269.84" y="102.987" width="23.9733" height="20.6667" style="fill:#f2f2f2;stroke-width:2px;stroke:#008080;"/><rect x="318.613" y="127.787" width="14.88" height="25.6267" style="fill:#f2f2f2;stroke-width:2px;stroke:#008080;"/><rect x="364.907" y="122.827" width="33.8933" height="30.5867" style="fill:#f2f2f2;stroke-width:4px;stroke:#008080;"/><path d="M376.48,223.68l-91.76,-27.28l0,109.12l91.76,0l0,-81.84Z" style="fill:#f2f2f2;stroke-width:6px;stroke:#008080;"/><rect x="313.653" y="263.36" width="33.8933" height="41.3333" style="fill:#f2f2f2;stroke-width:2px;stroke:#008080;"/><rect x="295.467" y="230.293" width="14.88" height="14.88" style="fill:#f2f2f2;stroke-width:2px;stroke:#008080;"/><rect x="321.92" y="230.293" width="14.88" height="14.88" style="fill:#f2f2f2;stroke-width:2px;stroke:#008080;"/><rect x="348.373" y="230.293" width="14.88" height="14.88" style="fill:#f2f2f2;stroke-width:2px;stroke:#008080;"/><path d="M378.133,448.228c0,-1.65741 -1.3436,-3.00101 -3.00101,-3.00101l-83.278,0c-1.65741,0 -3.00101,1.3436 -3.00101,3.00101l0,6.00202c0,1.65741 1.3436,3.00101 3.00101,3.00101l83.278,0c1.65741,0 3.00101,-1.3436 3.00101,-3.00101l0,-6.00202Z" style="fill:#f2f2f2;stroke-width:4px;stroke:#008080;"/><rect x="302.907" y="350.16" width="23.1467" height="23.1467" style="fill:#f2f2f2;stroke-width:2px;stroke:#008080;"/><rect x="337.627" y="384.88" width="23.1467" height="23.1467" style="fill:#f2f2f2;stroke-width:2px;stroke:#008080;"/><rect x="302.907" y="384.88" width="23.1467" height="23.1467" style="fill:#f2f2f2;stroke-width:2px;stroke:#008080;"/><rect x="337.627" y="350.16" width="23.1467" height="23.1467" style="fill:#f2f2f2;stroke-width:2px;stroke:#008080;"/></g></svg>