<?xml version="1.0" standalone="no"?><!DOCTYPE svg PUBLIC "-//W3C//DTD SVG 1.1//EN" "http://www.w3.org/Graphics/SVG/1.1/DTD/svg11.dtd"><svg width="100%" height="100%" viewBox="0 0 100 100" version="1.1" xmlns="http://www.w3.org/2000/svg" xmlns:xlink="http://www.w3.org/1999/xlink" xml:space="preserve" style="fill-rule:evenodd;clip-rule:evenodd;stroke-linejoin:round;stroke-miterlimit:1.41421;"><g id="Layer1"><path d="M55.0891,4.86579c1.86593e-06,-1.28139 -0.509026,-2.51029 -1.4151,-3.41637c-0.906078,-0.906078 -2.13498,-1.41511 -3.41637,-1.4151c-9.37749,-5.54223e-13 -29.9456,-5.54223e-13 -39.3231,-5.54223e-13c-1.28139,-1.99061e-06 -2.51029,0.509026 -3.41637,1.4151c-0.906078,0.906078 -1.41511,2.13498 -1.4151,3.41637c6.82121e-13,19.9835 6.82121e-13,95.1342 6.82121e-13,95.1342l48.9861,0c0,0 0,-75.1507 0,-95.1342Z" style="fill:#008080;"/><rect x="15.0483" y="85.8418" width="8.94528" height="14.1582" style="fill:#ebebeb;"/><rect x="12.9185" y="9.90217" width="6.38948" height="6.43556" style="fill:#f2f2f2;"/><rect x="12.9185" y="28.3508" width="6.38948" height="6.43556" style="fill:#ebebeb;"/><rect x="12.9185" y="46.7994" width="6.38948" height="6.43556" style="fill:#ebebeb;"/><rect x="12.9185" y="66.5351" width="6.38948" height="6.43556" style="fill:#ebebeb;"/><rect x="26.9753" y="9.90217" width="6.38948" height="6.43556" style="fill:#ebebeb;"/><rect x="26.9753" y="28.3508" width="6.38948" height="6.43556" style="fill:#ebebeb;"/><rect x="26.9753" y="46.7994" width="6.38948" height="6.43556" style="fill:#ebebeb;"/><rect x="26.9753" y="66.5351" width="6.38948" height="6.43556" style="fill:#ebebeb;"/><rect x="41.0322" y="9.90217" width="6.38948" height="6.43556" style="fill:#ebebeb;"/><rect x="41.0322" y="28.3508" width="6.38948" height="6.43556" style="fill:#ebebeb;"/><rect x="41.0322" y="46.7994" width="6.38948" height="6.43556" style="fill:#ebebeb;"/><rect x="41.0322" y="66.5351" width="6.38948" height="6.43556" style="fill:#ebebeb;"/><path d="M93,54.9511c-12.9058,-4.77797 -25.2997,-9.74994 -37.485,-14.1582l0,59.2071l37.485,0l0,-45.0489Z" style="fill:#008080;"/><rect x="67.868" y="82.8385" width="12.353" height="17.1615" style="fill:#f2f2f2;"/><rect x="63.1824" y="60.0995" width="21.7242" height="8.15171" style="fill:#f2f2f2;"/></g></svg>